<svg id="Layer_5" enable-background="new 0 0 64 64" height="512" viewBox="0 0 64 64" width="512" xmlns="http://www.w3.org/2000/svg"><path d="m60 7h-1v-2c0-2.206-1.794-4-4-4s-4 1.794-4 4v2h-2.142c-.447-1.72-2-3-3.858-3s-3.411 1.28-3.858 3h-18.284c-.447-1.72-2-3-3.858-3s-3.411 1.28-3.858 3h-2.142v-2c0-2.206-1.794-4-4-4s-4 1.794-4 4v2h-1c-1.654 0-3 1.346-3 3s1.346 3 3 3h1v2c0 2.206 1.794 4 4 4s4-1.794 4-4v-2h2.142c.364 1.399 1.459 2.494 2.858 2.858v2.142c0 2.071.458 4.051 1.324 5.906-.139.443-.239.904-.288 1.38-2.962.857-5.036 3.562-5.036 6.714 0 1.163.295 2.282.836 3.291-1.136 1.245-1.836 2.895-1.836 4.709 0 3.544 2.649 6.473 6.069 6.931.414 3.092 2.849 5.545 5.931 5.989v4.222c-1.72.447-3 2-3 3.858v2h8v-2c0-1.858-1.28-3.411-3-3.858v-4.217c2.12-.305 3.938-1.56 5-3.322 1.062 1.762 2.88 3.017 5 3.322v4.217c-1.72.447-3 2-3 3.858v2h8v-2c0-1.858-1.28-3.411-3-3.858v-4.221c3.155-.454 5.639-3.012 5.964-6.207 2.962-.857 5.036-3.562 5.036-6.714 0-1.163-.295-2.282-.836-3.291 1.136-1.245 1.836-2.895 1.836-4.709 0-3.544-2.649-6.473-6.069-6.931-.054-.4-.135-.792-.253-1.168.866-1.853 1.322-3.833 1.322-5.901v-2.142c1.399-.364 2.494-1.459 2.858-2.858h2.142v2c0 2.206 1.794 4 4 4s4-1.794 4-4v-2h1c1.654 0 3-1.346 3-3s-1.346-3-3-3zm-56 4c-.551 0-1-.449-1-1s.449-1 1-1h1v2zm7 4c0 1.103-.897 2-2 2s-2-.897-2-2v-10c0-1.103.897-2 2-2s2 .897 2 2zm2-6h2v2h-2zm28 2h-18v-2h18zm-24 1v-4c0-1.103.897-2 2-2s2 .897 2 2v4c0 1.103-.897 2-2 2s-2-.897-2-2zm11 49h-4c0-1.103.897-2 2-2s2 .897 2 2zm12 0h-4c0-1.103.897-2 2-2s2 .897 2 2zm9-29c0 2.757-2.243 5-5 5v2c1.307 0 2.526-.366 3.574-.992.273.625.426 1.296.426 1.992 0 2.449-1.753 4.52-4.169 4.924l-.831.229v.847c0 2.757-2.243 5-5 5s-5-2.243-5-5h-2c0 2.757-2.243 5-5 5s-5-2.243-5-5 2.243-5 5-5v-2c-3.488 0-6.379 2.566-6.906 5.908-2.325-.428-4.094-2.461-4.094-4.908 0-2.757 2.243-5 5-5v-2c-1.307 0-2.526.366-3.574.992-.273-.625-.426-1.296-.426-1.992 0-2.449 1.753-4.52 4.169-4.924l.831-.229v-.847c0-2.757 2.243-5 5-5s5 2.243 5 5h2c0-2.757 2.243-5 5-5s5 2.243 5 5-2.243 5-5 5v2c3.488 0 6.379-2.566 6.906-5.908 2.325.428 4.094 2.461 4.094 4.908zm-11-13c-2.543 0-4.774 1.363-6 3.397-1.226-2.034-3.457-3.397-6-3.397-2.192 0-4.148 1.017-5.432 2.599-.365-1.156-.568-2.357-.568-3.599v-2.142c1.399-.364 2.494-1.459 2.858-2.858h18.284c.364 1.399 1.459 2.494 2.858 2.858v2.142c0 1.24-.203 2.44-.566 3.595-1.285-1.581-3.243-2.595-5.434-2.595zm9-7c0 1.103-.897 2-2 2s-2-.897-2-2v-4c0-1.103.897-2 2-2s2 .897 2 2zm2-1v-2h2v2zm8 4c0 1.103-.897 2-2 2s-2-.897-2-2v-10c0-1.103.897-2 2-2s2 .897 2 2zm3-4h-1v-2h1c.551 0 1 .449 1 1s-.449 1-1 1z"/><path d="m23 46c0 1.654 1.346 3 3 3v-2c-.551 0-1-.449-1-1s.449-1 1-1v-2c-1.654 0-3 1.346-3 3z"/><path d="m38 42v2c2.206 0 4-1.794 4-4h-2c0 1.103-.897 2-2 2z"/><path d="m37 35c0 1.103-.897 2-2 2v2c2.206 0 4-1.794 4-4z"/><path d="m30 42v2c2.206 0 4-1.794 4-4h-2c0 1.103-.897 2-2 2z"/><path d="m32 32c0-2.206-1.794-4-4-4v2c1.103 0 2 .897 2 2z"/><path d="m21 29v2c1.103 0 2 .897 2 2h2c0-2.206-1.794-4-4-4z"/><path d="m41 26c0-1.654-1.346-3-3-3v2c.551 0 1 .449 1 1s-.449 1-1 1v2c1.654 0 3-1.346 3-3z"/></svg>