<svg height="512" viewBox="0 0 64 64" width="512" xmlns="http://www.w3.org/2000/svg"><g id="Tools"><path d="m18.101 18.101h2v2h-2z" transform="matrix(.707 -.707 .707 .707 -7.912 19.101)"/><path d="m50.393 41.9-12.009-12.01 15.128-15.127 3.656-.717 4.892-8.141-3.934-3.933-8.053 4.8-.8 3.738-15.133 15.136-12.04-12.038a10 10 0 0 0 -14.2-10.43 1 1 0 0 0 -.276 1.609l5.614 5.622-.466 2.36-2.361.466-5.625-5.612a1 1 0 0 0 -1.608.277 10 10 0 0 0 10.429 14.2l12.039 12.04-2.2 2.2-3.535-3.535a1.029 1.029 0 0 0 -1.414 0l-2.828 2.828a1 1 0 0 0 0 1.414l1.413 1.414a1 1 0 1 1 -1.414 1.415l-.707-.707a1 1 0 0 0 -1.414 0l-9.9 9.9a7.007 7.007 0 0 0 0 9.9l1.414 1.414a7 7 0 0 0 9.9 0l9.9-9.9a1 1 0 0 0 0-1.414l-.706-.706a1 1 0 0 1 0-1.415 1.025 1.025 0 0 1 1.415 0l1.414 1.414a1 1 0 0 0 1.415 0l2.828-2.828a1 1 0 0 0 0-1.414l-3.535-3.535 2.2-2.2 12.008 12.007a10 10 0 1 0 8.5-8.494zm.713-30.39.741-3.462 5.966-3.558 1.727 1.725-3.628 6.039-3.383.663-15.559 15.559-1.416-1.416zm-22.006 33.319-1.414 1.414-.708-.707a3 3 0 1 0 -4.243 4.242l-9.192 9.193a5 5 0 0 1 -7.071 0l-1.413-1.414a5.006 5.006 0 0 1 0-7.072l9.192-9.192a3 3 0 0 0 4.243 0 3 3 0 0 0 0-4.242l-.707-.707 1.413-1.415zm-2.828-5.657-1.416-1.415 2.2-2.2 1.415 1.416zm31.181 18.28a8 8 0 0 1 -13.5-7.211 1 1 0 0 0 -.274-.9l-29.02-29.02a1 1 0 0 0 -.707-.293.971.971 0 0 0 -.193.019 8.005 8.005 0 0 1 -9.283-9.913l4.9 4.891a1 1 0 0 0 .9.274l3.54-.7a1 1 0 0 0 .788-.787l.7-3.54a1 1 0 0 0 -.274-.9l-4.892-4.9a8.005 8.005 0 0 1 9.913 9.283 1 1 0 0 0 .274.9l29.02 29.02a1 1 0 0 0 .9.274 8 8 0 0 1 7.211 13.5z"/><path d="m47.717 47.717-1.494 5.576 4.082 4.082 5.577-1.494 1.494-5.576-4.083-4.083zm6.532 6.532-3.347.9-2.449-2.449.9-3.346 3.345-.9 2.448 2.446z"/><path d="m31 16.444h2v31.113h-2z" transform="matrix(.707 -.707 .707 .707 -13.255 32)"/><path d="m44.101 44.101h2v2h-2z" transform="matrix(.707 -.707 .707 .707 -18.681 45.101)"/><path d="m3.929 48h14.142v2h-14.142z" transform="matrix(.707 -.707 .707 .707 -31.426 22.13)"/><path d="m7.929 52h14.142v2h-14.142z" transform="matrix(.707 -.707 .707 .707 -33.083 26.13)"/></g></svg>