<svg width="75" height="75" viewBox="0 0 75 75" fill="none" xmlns="http://www.w3.org/2000/svg">
<path d="M37.5 74.9996C58.2107 74.9996 75 58.2104 75 37.4998C75 16.7892 58.2107 0 37.5 0C16.7893 0 0 16.7892 0 37.4998C0 58.2104 16.7893 74.9996 37.5 74.9996Z" fill="#009688"/>
<path d="M34.9319 56.7357L50.7765 72.5804C63.0741 67.9231 72.2821 56.9871 74.4889 43.6836L51.6405 20.8351L34.9319 56.7357Z" fill="#00675B"/>
<path d="M37.4998 74.9996C42.8647 74.9996 47.965 73.8705 52.5798 71.8413L44.853 44.7977C44.2324 42.6255 42.2468 41.1277 39.9877 41.1277H35.0119C32.7525 41.1277 30.7672 42.6253 30.1465 44.7977L22.4194 71.8412C27.0343 73.8705 32.1348 74.9996 37.4998 74.9996Z" fill="#F9E382"/>
<path d="M52.5793 71.8413L44.8525 44.7977C44.2318 42.6255 42.2462 41.1277 39.9871 41.1277H37.3311V74.9976C37.3873 74.9979 37.4431 74.9999 37.4992 74.9999C42.8641 74.9996 47.9644 73.8705 52.5793 71.8413Z" fill="#F2DA75"/>
<path d="M43.9788 25.9436C42.0374 24.9406 39.8356 24.3706 37.4997 24.3706C35.1639 24.3706 32.9621 24.9406 31.0207 25.9436L23.3584 20.8351V38.5124C23.3584 46.3228 29.6898 52.6543 37.4999 52.6543C45.31 52.6543 51.6414 46.3228 51.6414 38.5124V20.8351L43.9788 25.9436Z" fill="#FFD15D"/>
<path d="M43.9782 25.9436C42.0369 24.9406 39.8351 24.3706 37.4992 24.3706C37.4427 24.3706 37.3873 24.3751 37.3311 24.3756V52.6501C37.3873 52.6508 37.443 52.6543 37.4992 52.6543C45.3094 52.6543 51.6407 46.3228 51.6407 38.5124V20.8351L43.9782 25.9436Z" fill="#F9B54C"/>
<path d="M31.1483 41.4543C31.7833 41.4543 32.298 40.9395 32.298 40.3045C32.298 39.6696 31.7833 39.1548 31.1483 39.1548C30.5133 39.1548 29.9985 39.6696 29.9985 40.3045C29.9985 40.9395 30.5133 41.4543 31.1483 41.4543Z" fill="#324A5E"/>
<path d="M43.8504 41.4543C44.4854 41.4543 45.0002 40.9395 45.0002 40.3045C45.0002 39.6696 44.4854 39.1548 43.8504 39.1548C43.2154 39.1548 42.7007 39.6696 42.7007 40.3045C42.7007 40.9395 43.2154 41.4543 43.8504 41.4543Z" fill="#2B3B4E"/>
<path d="M41.4666 46.3363C41.4666 47.3272 40.6605 48.1332 39.6697 48.1332C39.0303 48.1332 38.454 47.7966 38.1303 47.2506V43.7574C38.6822 43.4142 39.3959 42.847 39.3959 42.2041C39.3959 41.1565 38.5466 41.3418 37.4989 41.3418C36.4513 41.3418 35.602 41.1565 35.602 42.2041C35.602 42.847 36.3156 43.4142 36.8676 43.7574V47.2506C36.5441 47.7963 35.9676 48.1332 35.3282 48.1332C34.3372 48.1332 33.5312 47.3271 33.5312 46.3363H32.2686C32.2686 48.0233 33.641 49.3959 35.3282 49.3959C36.1612 49.3959 36.9347 49.0641 37.4989 48.4927C38.063 49.0641 38.8363 49.3959 39.6697 49.3959C41.3567 49.3959 42.7293 48.0235 42.7293 46.3363H41.4666Z" fill="#324A5E"/>
<path d="M41.4668 46.3363C41.4668 47.3272 40.6607 48.1332 39.6699 48.1332C39.0305 48.1332 38.4543 47.7966 38.1306 47.2506V43.7574C38.6825 43.4142 39.3962 42.847 39.3962 42.2041C39.3962 41.1565 38.5469 41.3418 37.4992 41.3418C37.4424 41.3418 37.3866 41.341 37.3311 41.3403V48.6468C37.3883 48.5968 37.4457 48.5467 37.4992 48.4922C38.0633 49.0637 38.8366 49.3954 39.6699 49.3954C41.357 49.3954 42.7295 48.023 42.7295 46.3358H41.4668V46.3363Z" fill="#2B3B4E"/>
<path d="M39.5828 34.4047V24.5264C38.9026 24.4253 38.2081 24.3667 37.4996 24.3667C36.791 24.3667 36.0965 24.4253 35.4163 24.5264V34.4047C35.4163 35.5552 36.3491 36.488 37.4996 36.488C38.65 36.488 39.5828 35.5552 39.5828 34.4047Z" fill="#F9B54C"/>
<path d="M37.4992 24.369C37.443 24.369 37.3872 24.3718 37.3311 24.3722V36.4815C37.3866 36.486 37.4424 36.4902 37.4992 36.4902C38.6497 36.4902 39.5825 35.5573 39.5825 34.4069V24.5285C38.9022 24.4273 38.2078 24.369 37.4992 24.369Z" fill="#F4A200"/>
<path d="M41.8552 32.1977C42.6572 32.1977 43.3072 31.5478 43.3072 30.7458V25.62C42.3875 25.2046 41.4144 24.8879 40.4031 24.6758V30.7458C40.4032 31.5478 41.0532 32.1977 41.8552 32.1977Z" fill="#F4A200"/>
<path d="M31.6914 25.6199V30.7457C31.6914 31.5477 32.3414 32.1976 33.1434 32.1976C33.9454 32.1976 34.5954 31.5477 34.5954 30.7457V24.6757C33.5839 24.8878 32.611 25.2045 31.6914 25.6199Z" fill="#F9B54C"/>
</svg>
