<svg width="16" height="17" viewBox="0 0 16 17" fill="none" xmlns="http://www.w3.org/2000/svg">
<path d="M8.93804 8.9927L15.7966 2.13415C16.0613 1.87849 16.0686 1.45667 15.813 1.19196C15.5573 0.927251 15.1355 0.919911 14.8708 1.17556C14.8652 1.18091 14.8598 1.18638 14.8544 1.19196L7.99582 8.05052L1.13729 1.19192C0.872577 0.93627 0.450759 0.94361 0.195107 1.20832C-0.0542987 1.46655 -0.0542987 1.87592 0.195107 2.13415L7.05363 8.9927L0.195107 15.8513C-0.0650355 16.1114 -0.0650355 16.5333 0.195107 16.7934C0.455288 17.0536 0.877106 17.0536 1.13729 16.7934L7.99582 9.93489L14.8543 16.7934C15.1191 17.0491 15.5409 17.0418 15.7965 16.7771C16.0459 16.5188 16.0459 16.1095 15.7965 15.8513L8.93804 8.9927Z" fill="black"/>
</svg>
