<svg width="416" height="736" viewBox="0 0 416 736" fill="none" xmlns="http://www.w3.org/2000/svg">
<path d="M0 0H416V30.9244L80.7164 261.826L0 202.039V0Z" fill="#0C4759"/>
<path d="M416 30.9243V140.19L161.433 317.49L80.7163 261.826L416 30.9243Z" fill="#245B6C"/>
<path d="M416 140.19V249.457L78.6468 482.42L0 426.756L416 140.19Z" fill="#38ADB3"/>
<path d="M416 249.457V358.723L157.294 536.022L78.647 482.42L416 249.457Z" fill="#74C2C9"/>
<path d="M0 202.039L161.433 315.429L0 426.756V202.039Z" fill="#009688"/>
<path d="M416 358.723V716.144L157.293 536.022L416 358.723Z" fill="#FFD740"/>
<path d="M0 426.756L416 715.384V736H391.164L0 464.551V426.756Z" fill="#EAB22E"/>
<path d="M0 463.865L391.164 736H0V463.865Z" fill="#CCEAED"/>
</svg>
