<svg width="30" height="30" viewBox="0 0 30 30" fill="none" xmlns="http://www.w3.org/2000/svg">
<path d="M23.7891 11.5434V8.78906C23.7891 3.94272 19.8463 0 15 0C10.1537 0 6.21094 3.94272 6.21094 8.78906V11.5434C4.87518 11.8156 3.86719 12.9993 3.86719 14.4141V17.7404C3.86719 18.064 4.12949 18.3263 4.45312 18.3263C4.77676 18.3263 5.03906 18.064 5.03906 17.7404V14.4141C5.03906 13.4447 5.82756 12.6562 6.79688 12.6562H23.2031C24.1724 12.6562 24.9609 13.4447 24.9609 14.4141V27.0703C24.9609 27.8341 24.4711 28.4855 23.7891 28.7274V25.1953C23.7891 24.8717 23.5268 24.6094 23.2031 24.6094C22.8795 24.6094 22.6172 24.8717 22.6172 25.1953V28.8281H6.79688C5.82756 28.8281 5.03906 28.0396 5.03906 27.0703V22.4414C5.03906 22.1178 4.77676 21.8555 4.45312 21.8555C4.12949 21.8555 3.86719 22.1178 3.86719 22.4414V27.0703C3.86719 28.6858 5.18143 30 6.79688 30H23.2031C24.8186 30 26.1328 28.6858 26.1328 27.0703V14.4141C26.1328 12.9993 25.1248 11.8156 23.7891 11.5434ZM10.5469 11.4844V8.78906C10.5469 6.33362 12.5446 4.33594 15 4.33594C17.4554 4.33594 19.4531 6.33362 19.4531 8.78906V11.4844H10.5469ZM20.625 11.4844V8.78906C20.625 5.68748 18.1016 3.16406 15 3.16406C11.8984 3.16406 9.375 5.68748 9.375 8.78906V11.4844H7.38281V8.78906C7.38281 4.58885 10.7998 1.17188 15 1.17188C19.2002 1.17188 22.6172 4.58885 22.6172 8.78906V11.4844H20.625Z" fill="#9D9D9D"/>
<path d="M4.45312 20.6536C4.60716 20.6536 4.75845 20.5911 4.8674 20.4819C4.97635 20.373 5.03906 20.2219 5.03906 20.0676C5.03906 19.9136 4.97635 19.7623 4.8674 19.6536C4.75845 19.5444 4.60716 19.4817 4.45312 19.4817C4.29909 19.4817 4.1478 19.5444 4.03885 19.6536C3.9299 19.7623 3.86719 19.9136 3.86719 20.0676C3.86719 20.2219 3.9299 20.373 4.03885 20.4819C4.1478 20.5911 4.29909 20.6536 4.45312 20.6536Z" fill="#9D9D9D"/>
<path d="M15 26.836C15.9693 26.836 16.7578 26.0475 16.7578 25.0782V21.9667C17.6381 21.384 18.1716 20.4044 18.1716 19.3309C18.1716 17.5864 16.7521 16.1669 15.0076 16.1669C13.2628 16.1669 11.8435 17.5864 11.8435 19.3309C11.8435 20.3966 12.3711 21.3726 13.2422 21.9567V25.0782C13.2422 26.0475 14.0307 26.836 15 26.836ZM13.0154 19.3309C13.0154 18.2323 13.9089 17.3387 15.0076 17.3387C16.106 17.3387 16.9998 18.2323 16.9998 19.3309C16.9998 20.0853 16.5809 20.7663 15.9068 21.1084C15.71 21.2082 15.586 21.4101 15.586 21.631V25.0782C15.586 25.4013 15.3232 25.6641 15 25.6641C14.6768 25.6641 14.4141 25.4013 14.4141 25.0782V21.6232C14.4141 21.4039 14.2916 21.203 14.0966 21.1025C13.4297 20.7587 13.0154 20.0798 13.0154 19.3309Z" fill="#9D9D9D"/>
<path d="M23.2031 23.3789C23.3578 23.3789 23.5085 23.3162 23.6174 23.2072C23.7263 23.0983 23.7891 22.9477 23.7891 22.793C23.7891 22.6382 23.7263 22.4876 23.6174 22.3787C23.5085 22.2697 23.3578 22.207 23.2031 22.207C23.0491 22.207 22.8978 22.2697 22.7888 22.3787C22.6799 22.4876 22.6172 22.6389 22.6172 22.793C22.6172 22.947 22.6799 23.0983 22.7888 23.2072C22.8978 23.3162 23.0491 23.3789 23.2031 23.3789Z" fill="#9D9D9D"/>
</svg>
