<svg width="30" height="28" viewBox="0 0 30 28" fill="none" xmlns="http://www.w3.org/2000/svg">
<path d="M10.6052 8.20484C12.5545 8.20484 13.8285 6.16805 13.8285 4.10242C13.8285 2.0324 12.5509 0 10.6052 0C8.65581 0 7.38184 2.03679 7.38184 4.10242C7.38184 6.17244 8.65951 8.20484 10.6052 8.20484ZM10.6052 1.17212C11.717 1.17212 12.6564 2.51402 12.6564 4.10242C12.6564 5.69082 11.717 7.03272 10.6052 7.03272C9.4933 7.03272 8.55396 5.69082 8.55396 4.10242C8.55396 2.51402 9.49335 1.17212 10.6052 1.17212Z" fill="#9D9D9D"/>
<path d="M19.3955 8.20484C21.3448 8.20484 22.6188 6.16805 22.6188 4.10242C22.6188 2.0324 21.3412 0 19.3955 0C17.4461 0 16.1721 2.03679 16.1721 4.10242C16.1721 6.17244 17.4497 8.20484 19.3955 8.20484ZM19.3955 1.17212C20.5073 1.17212 21.4467 2.51402 21.4467 4.10242C21.4467 5.69082 20.5073 7.03272 19.3955 7.03272C18.2836 7.03272 17.3442 5.69082 17.3442 4.10242C17.3442 2.51402 18.2836 1.17212 19.3955 1.17212Z" fill="#9D9D9D"/>
<path d="M5.51641 14.688C7.20766 13.7124 7.28783 11.3095 6.25689 9.52363C5.22244 7.73081 3.10002 6.60909 1.41422 7.58242C-0.272753 8.55604 -0.359842 10.9563 0.673968 12.7468C1.7076 14.5371 3.83816 15.6573 5.51641 14.688ZM2.00022 8.59754C3.12423 7.94859 4.58041 8.96336 5.24172 10.1095C5.24172 10.1095 5.24172 10.1095 5.24178 10.1096C5.90139 11.2522 6.05669 13.0232 4.9304 13.6729C3.80616 14.3223 2.34986 13.3053 1.68902 12.1608C1.02894 11.0173 0.875162 9.24689 2.00022 8.59754Z" fill="#9D9D9D"/>
<path d="M24.4839 14.6879C26.1719 15.6629 28.2937 14.5361 29.3267 12.7469C30.3669 10.9454 30.2632 8.55026 28.5865 7.58256C26.8931 6.60496 24.7725 7.74086 23.7438 9.52359C22.7068 11.3197 22.8006 13.7169 24.4839 14.6879ZM24.7589 10.1095C25.4164 8.96994 26.8727 7.94639 28.0005 8.59762C29.1248 9.2465 28.9725 11.0161 28.3116 12.1608C27.652 13.3032 26.1957 14.3231 25.0699 13.6727C23.9474 13.0252 24.096 11.2579 24.7589 10.1095Z" fill="#9D9D9D"/>
<path d="M24.7877 25.0248C25.1114 25.0248 25.3738 24.7624 25.3738 24.4387C25.3738 24.115 25.1114 23.8527 24.7877 23.8527C24.464 23.8527 24.2017 24.115 24.2017 24.4387C24.2017 24.7624 24.464 25.0248 24.7877 25.0248Z" fill="#9D9D9D"/>
<path d="M3.93618 22.5291C4.27223 24.9913 6.00778 26.9851 8.66809 27.4522C10.3591 27.7488 11.9779 27.326 13.2509 26.366C14.2805 25.5897 15.7188 25.5896 16.7485 26.366C18.0597 27.3548 19.6873 27.7404 21.3314 27.4522C22.0041 27.3341 22.6314 27.1171 23.1958 26.807C23.4795 26.6511 23.5831 26.2948 23.4273 26.0112C23.2715 25.7275 22.9152 25.6238 22.6315 25.7797C22.1801 26.0276 21.6745 26.202 21.1288 26.2978C19.8082 26.5292 18.5031 26.2212 17.4541 25.4301C16.0091 24.3405 13.9903 24.3405 12.5452 25.4301C11.4961 26.2212 10.1911 26.5292 8.87063 26.2978C6.42529 25.8684 5.31823 23.9876 5.0974 22.3706C4.81017 20.2664 5.79815 18.3467 7.61488 17.4799C8.45394 17.0788 9.12463 16.4263 9.50322 15.6425C10.6894 13.1871 12.7442 11.7212 14.9996 11.7212C17.2551 11.7212 19.3099 13.1871 20.4961 15.6425C20.8747 16.4263 21.5453 17.0788 22.3848 17.4801C24.04 18.27 25.0209 19.9577 24.9446 21.8848C24.9317 22.2083 25.1835 22.4808 25.507 22.4936C25.8295 22.5064 26.103 22.2546 26.1158 21.9312C26.211 19.5282 24.9748 17.4173 22.8901 16.4225C22.2902 16.1356 21.8148 15.6776 21.5515 15.1327C20.2721 12.4842 17.8785 10.5491 14.9997 10.5491C12.1192 10.5491 9.72628 12.4863 8.4479 15.1327C8.18465 15.6776 7.70923 16.1356 7.10975 16.4222C4.73058 17.5575 3.60043 20.07 3.93618 22.5291Z" fill="#9D9D9D"/>
</svg>
