<svg width="20" height="20" viewBox="0 0 20 20" fill="none" xmlns="http://www.w3.org/2000/svg">
<path d="M19.3774 2.43367L17.5651 0.621171C16.737 -0.206914 15.3897 -0.206875 14.5617 0.621171C13.782 1.4009 1.87359 13.3102 1.07777 14.1061C0.993003 14.1908 0.936206 14.3035 0.915972 14.4137L0.00980134 19.3074C-0.0253158 19.4972 0.0351529 19.692 0.171598 19.8285C0.308199 19.9651 0.503121 20.0254 0.692613 19.9903L5.58592 19.084C5.69901 19.0629 5.81018 19.0056 5.89354 18.9222L19.3774 5.43729C20.2074 4.6073 20.2075 3.26378 19.3774 2.43367ZM1.31722 18.6827L1.86538 15.7224L4.27733 18.1345L1.31722 18.6827ZM5.47924 17.6792L2.3207 14.5204L13.8523 2.98792L17.0109 6.14671L5.47924 17.6792ZM18.5488 4.60866L17.8395 5.31808L14.6809 2.15929L15.3902 1.44988C15.7614 1.07871 16.3652 1.07867 16.7365 1.44988L18.5488 3.26238C18.9209 3.63445 18.9209 4.23656 18.5488 4.60866Z" fill="black"/>
</svg>
